<svg version="1.2" xmlns="http://www.w3.org/2000/svg" viewBox="0 0 1000 1000" width="32" height="32">
	<title>518cb6f4bb8c91b940b04ae7079aabd9-svg</title>
	<style>
		.s0 { fill: #f9a533 } 
	</style>
	<g id="Layer">
		<path id="Layer" fill-rule="evenodd" class="s0" d="m990 775.6c0 101.5-82.2 183.8-183.7 183.8-101.5 0-183.8-82.3-183.8-183.8h-245c0 101.5-82.2 183.8-183.7 183.8-101.5 0-183.8-82.3-183.8-183.8 0-101.5 82.3-183.7 183.7-183.7 8.4 0 16.5 1.4 24.6 2.5l153.6-238.5c-34.3-33.4-55.7-79.9-55.7-131.5 0-101.5 82.3-183.8 183.8-183.8 101.4 0 183.7 82.3 183.7 183.8 0 52.8-22.6 100.1-58.3 133.6l152.5 236.7c9.3-1.4 18.7-2.8 28.4-2.8 101.4 0 183.7 82.2 183.7 183.7zm-623.8-61.1h267.6c15.2-42.6 45.4-77.6 84.5-99.1l-143.8-223.2c-22.8 10.1-47.9 16-74.5 16-27.8 0-53.9-6.7-77.5-17.7l-143.8 223.2c40.6 21.3 72 57 87.5 100.7z"/>
	</g>
</svg>